<svg xmlns="http://www.w3.org/2000/svg" width="760" height="1500" viewBox="0 0 760 1500">
  <rect width="760" height="1500" fill="#172018"/>
  <rect x="130" y="80" width="500" height="1340" rx="250" fill="#edf2dc"/>
  <path d="M130 748 H630" stroke="#80964a" stroke-width="38"/>
  <g transform="translate(380 230)" fill="none" stroke="#7a8e24" stroke-linecap="round" stroke-linejoin="round">
    <path d="M-62-76 V76 H-30 C20 76 54 44 54 0 C54-44 20-76-30-76 H-62Z" stroke-width="7"/>
    <path d="M18 76 L80-76 L142 76" stroke-width="7"/>
    <path d="M45 14 H115" stroke-width="5"/>
    <path d="M80-12 C70 0 70 16 80 26 C90 16 90 0 80-12Z" fill="#7a8e24" stroke="none"/>
  </g>
  <text x="380" y="430" text-anchor="middle" font-family="Georgia, serif" font-size="48" fill="#0b0d0b" letter-spacing="8">DOÑA ANNA</text>
  <text x="380" y="705" text-anchor="middle" font-family="Arial, sans-serif" font-size="64" fill="#0b0d0b" letter-spacing="14">VERDE</text>
  <text x="380" y="790" text-anchor="middle" font-family="Arial, sans-serif" font-size="64" fill="#0b0d0b" letter-spacing="14">ALTO</text>
  <line x1="245" y1="860" x2="515" y2="860" stroke="#7a8e24" stroke-width="8"/>
  <text x="380" y="930" text-anchor="middle" font-family="Arial, sans-serif" font-size="22" fill="#292929" letter-spacing="5">SECOND EARLY HARVEST</text>
  <text x="380" y="985" text-anchor="middle" font-family="Arial, sans-serif" font-size="18" fill="#41502d" letter-spacing="3">HIGH POLYPHENOL · DAILY PREMIUM</text>
  <text x="380" y="1030" text-anchor="middle" font-family="Arial, sans-serif" font-size="18" fill="#6f6a5f" letter-spacing="3">BIAR · ALICANTE</text>
  <rect x="320" y="1160" width="120" height="120" rx="60" fill="none" stroke="#7a8e24" stroke-width="5"/>
  <text x="380" y="1228" text-anchor="middle" font-family="Arial, sans-serif" font-size="18" fill="#0b0d0b">QR</text>
  <text x="380" y="1345" text-anchor="middle" font-family="Arial, sans-serif" font-size="18" fill="#0b0d0b" letter-spacing="6">250 ML / 500 ML</text>
</svg>
