<svg xmlns="http://www.w3.org/2000/svg" width="1200" height="630" viewBox="0 0 1200 630" role="img" aria-labelledby="title desc"><title id="title">Olivia AI Smart Farm OS</title><desc id="desc">Smart Farm OS for olive producers and premium olive oil traceability</desc><defs><linearGradient id="bg" x1="0" y1="0" x2="1" y2="1"><stop offset="0" stop-color="#0a0a0b"/><stop offset="0.52" stop-color="#102015"/><stop offset="1" stop-color="#1f2c18"/></linearGradient><linearGradient id="gold" x1="0" y1="0" x2="1" y2="1"><stop offset="0" stop-color="#e8d08a"/><stop offset="1" stop-color="#9d7d35"/></linearGradient><filter id="shadow"><feDropShadow dx="0" dy="18" stdDeviation="20" flood-color="#000" flood-opacity=".35"/></filter></defs><rect width="1200" height="630" fill="url(#bg)"/><circle cx="990" cy="110" r="220" fill="#2f6f3f" opacity=".18"/><circle cx="160" cy="540" r="240" fill="#c9a96e" opacity=".08"/><g opacity=".55"><path d="M780 410 C900 270 1010 250 1110 330 C982 345 900 410 830 530 Z" fill="#6e8b45"/><path d="M725 425 C840 305 945 295 1030 365 C918 372 838 432 770 542 Z" fill="#4f7137"/><path d="M860 445 C930 345 1035 330 1110 390 C1018 392 950 442 900 552 Z" fill="#8ca85e"/></g><g filter="url(#shadow)"><rect x="90" y="90" width="600" height="450" rx="28" fill="rgba(255,255,255,.05)" stroke="rgba(232,208,138,.26)"/><text x="130" y="172" fill="#c9a96e" font-family="Arial, sans-serif" font-size="28" font-weight="700" letter-spacing="5">OLIVIA AI</text><text x="130" y="260" fill="#f8fafc" font-family="Georgia, serif" font-size="78" font-weight="700">Smart Farm OS</text><text x="130" y="328" fill="#d4c7a0" font-family="Arial, sans-serif" font-size="30">Olive farming · Traceability · B2B</text><line x1="130" y1="385" x2="555" y2="385" stroke="url(#gold)" stroke-width="3"/><text x="130" y="446" fill="#f2e4b8" font-family="Arial, sans-serif" font-size="27">From grove to bottle.</text><text x="130" y="490" fill="#f2e4b8" font-family="Arial, sans-serif" font-size="27">From batch to buyer.</text></g><g transform="translate(770 130)" filter="url(#shadow)"><rect width="300" height="300" rx="150" fill="rgba(255,255,255,.04)" stroke="rgba(232,208,138,.28)"/><path d="M150 56 C118 112 99 165 150 244 C203 164 183 112 150 56 Z" fill="#8baa51"/><path d="M150 56 C168 116 170 174 150 244" fill="none" stroke="#d9c27b" stroke-width="7" stroke-linecap="round" opacity=".75"/><circle cx="114" cy="190" r="18" fill="#2f6f3f"/><circle cx="186" cy="176" r="18" fill="#2f6f3f"/><circle cx="155" cy="216" r="16" fill="#2f6f3f"/></g></svg>