<svg xmlns="http://www.w3.org/2000/svg" width="900" height="1300" viewBox="0 0 900 1300">
  <rect width="900" height="1300" fill="#120908"/>
  <ellipse cx="450" cy="1190" rx="220" ry="38" fill="#000" opacity=".55"/>
  <path d="M378 96 H522 L508 265 C580 306 622 383 622 486 V1120 C622 1162 588 1196 546 1196 H354 C312 1196 278 1162 278 1120 V486 C278 383 320 306 392 265Z" fill="#130b08" stroke="#3d1d17" stroke-width="6"/>
  <rect x="386" y="40" width="128" height="78" fill="#6e2430" stroke="#9c7b38" stroke-width="5"/>
  <rect x="305" y="405" width="290" height="560" fill="#efe1c2"/>
  <rect x="305" y="405" width="290" height="92" fill="#6e2430"/>
  <text x="450" y="466" text-anchor="middle" font-family="Georgia, serif" font-size="27" fill="#f5efe1" letter-spacing="5">DOÑA ANNA</text>
  <text x="450" y="675" text-anchor="middle" font-family="Georgia, serif" font-size="54" fill="#111">Raíz</text>
  <text x="450" y="742" text-anchor="middle" font-family="Georgia, serif" font-size="54" fill="#6e2430">Antigua</text>
  <path d="M390 790 C420 770 480 770 510 790" fill="none" stroke="#9c7b38" stroke-width="5"/>
  <text x="450" y="1015" text-anchor="middle" font-family="Arial, sans-serif" font-size="17" fill="#9c7b38" letter-spacing="4">OLD TREE · 500 ML</text>
</svg>
