<svg xmlns="http://www.w3.org/2000/svg" width="900" height="1300" viewBox="0 0 900 1300">
  <rect width="900" height="1300" fill="#091109"/>
  <ellipse cx="450" cy="1190" rx="220" ry="38" fill="#000" opacity=".5"/>
  <path d="M378 96 H522 L508 265 C580 306 622 383 622 486 V1120 C622 1162 588 1196 546 1196 H354 C312 1196 278 1162 278 1120 V486 C278 383 320 306 392 265Z" fill="#182018" stroke="#354230" stroke-width="6"/>
  <rect x="386" y="40" width="128" height="78" fill="#172018" stroke="#7a8e24" stroke-width="5"/>
  <rect x="305" y="425" width="290" height="530" rx="145" fill="#edf2dc"/>
  <path d="M305 690 H595" stroke="#80964a" stroke-width="34"/>
  <text x="450" y="535" text-anchor="middle" font-family="Georgia, serif" font-size="28" fill="#111" letter-spacing="5">DOÑA ANNA</text>
  <text x="450" y="690" text-anchor="middle" font-family="Arial, sans-serif" font-size="40" fill="#111" letter-spacing="8">VERDE</text>
  <text x="450" y="748" text-anchor="middle" font-family="Arial, sans-serif" font-size="40" fill="#111" letter-spacing="8">ALTO</text>
  <text x="450" y="1015" text-anchor="middle" font-family="Arial, sans-serif" font-size="18" fill="#7a8e24" letter-spacing="5">LEVEL II · 500 ML</text>
</svg>
