<svg xmlns="http://www.w3.org/2000/svg" width="760" height="1500" viewBox="0 0 760 1500">
  <rect width="760" height="1500" fill="#0b0d0b"/>
  <rect x="160" y="80" width="440" height="1340" rx="0" fill="#f8f5ea"/>
  <g transform="translate(380 240)" fill="none" stroke="#c8a94a" stroke-linecap="round" stroke-linejoin="round">
    <path d="M-62-76 V76 H-30 C20 76 54 44 54 0 C54-44 20-76-30-76 H-62Z" stroke-width="7"/>
    <path d="M18 76 L80-76 L142 76" stroke-width="7"/>
    <path d="M45 14 H115" stroke-width="5"/>
    <path d="M80-12 C70 0 70 16 80 26 C90 16 90 0 80-12Z" fill="#c8a94a" stroke="none"/>
  </g>
  <text x="380" y="435" text-anchor="middle" font-family="Georgia, serif" font-size="48" fill="#0b0d0b" letter-spacing="8">DOÑA ANNA</text>
  <text x="380" y="705" text-anchor="middle" font-family="Arial, sans-serif" font-size="64" fill="#0b0d0b" letter-spacing="14">VERDE</text>
  <text x="380" y="790" text-anchor="middle" font-family="Arial, sans-serif" font-size="64" fill="#0b0d0b" letter-spacing="14">VIVO</text>
  <line x1="275" y1="860" x2="485" y2="860" stroke="#c8a94a" stroke-width="4"/>
  <text x="380" y="930" text-anchor="middle" font-family="Arial, sans-serif" font-size="22" fill="#292929" letter-spacing="5">FIRST EARLY HARVEST</text>
  <text x="380" y="985" text-anchor="middle" font-family="Arial, sans-serif" font-size="18" fill="#6f6a5f" letter-spacing="3">MONOVARIETAL CHANGLOT REAL</text>
  <text x="380" y="1030" text-anchor="middle" font-family="Arial, sans-serif" font-size="18" fill="#6f6a5f" letter-spacing="3">BIAR · ALICANTE</text>
  <rect x="320" y="1160" width="120" height="120" fill="none" stroke="#0b0d0b" stroke-width="4"/>
  <text x="380" y="1228" text-anchor="middle" font-family="Arial, sans-serif" font-size="18" fill="#0b0d0b">QR</text>
  <text x="380" y="1345" text-anchor="middle" font-family="Arial, sans-serif" font-size="18" fill="#0b0d0b" letter-spacing="6">250 ML</text>
</svg>
